<?xml version="1.0" encoding="UTF-8" standalone="no"?>
<!-- Created with Inkscape (http://www.inkscape.org/) -->

<svg
   xmlns:dc="http://purl.org/dc/elements/1.1/"
   xmlns:cc="http://creativecommons.org/ns#"
   xmlns:rdf="http://www.w3.org/1999/02/22-rdf-syntax-ns#"
   xmlns:svg="http://www.w3.org/2000/svg"
   xmlns="http://www.w3.org/2000/svg"
   xmlns:sodipodi="http://sodipodi.sourceforge.net/DTD/sodipodi-0.dtd"
   xmlns:inkscape="http://www.inkscape.org/namespaces/inkscape"
   width="162"
   height="162"
   viewBox="0 0 162 162"
   id="svg2"
   version="1.1"
   inkscape:version="0.91 r13725"
   sodipodi:docname="logo.svg"
   inkscape:export-filename="/mnt/737e9ed1-8932-449f-85af-6d903551da56/Projects/EnergySystemModel/docs/src/assets/favicon.ico"
   inkscape:export-xdpi="90"
   inkscape:export-ydpi="90">
  <defs
     id="defs4" />
  <sodipodi:namedview
     id="base"
     pagecolor="#ffffff"
     bordercolor="#666666"
     borderopacity="1.0"
     inkscape:pageopacity="0.0"
     inkscape:pageshadow="2"
     inkscape:zoom="2.8"
     inkscape:cx="33.479381"
     inkscape:cy="75.464575"
     inkscape:document-units="px"
     inkscape:current-layer="layer1"
     showgrid="true"
     units="px"
     inkscape:window-width="1920"
     inkscape:window-height="1056"
     inkscape:window-x="0"
     inkscape:window-y="24"
     inkscape:window-maximized="1">
    <inkscape:grid
       type="xygrid"
       id="grid3355"
       enabled="true" />
  </sodipodi:namedview>
  <metadata
     id="metadata7">
    <rdf:RDF>
      <cc:Work
         rdf:about="">
        <dc:format>image/svg+xml</dc:format>
        <dc:type
           rdf:resource="http://purl.org/dc/dcmitype/StillImage" />
        <dc:title></dc:title>
      </cc:Work>
    </rdf:RDF>
  </metadata>
  <g
     inkscape:label="Layer 1"
     inkscape:groupmode="layer"
     id="layer1"
     transform="translate(0,-890.3622)">
    <path
       style="fill:none;fill-rule:evenodd;stroke:#000000;stroke-width:3.80033064px;stroke-linecap:butt;stroke-linejoin:miter;stroke-opacity:1"
       d="M 36.177755,1018.1732 127.38569,961.16825 Z"
       id="path4352"
       inkscape:connector-curvature="0" />
    <path
       style="fill:none;fill-rule:evenodd;stroke:#000000;stroke-width:3.80033064px;stroke-linecap:butt;stroke-linejoin:miter;stroke-opacity:1"
       d="m 36.177755,919.36462 91.207935,41.80363 z"
       id="path4354"
       inkscape:connector-curvature="0" />
    <path
       style="fill:none;fill-rule:evenodd;stroke:#000000;stroke-width:3.80033064px;stroke-linecap:butt;stroke-linejoin:miter;stroke-opacity:1"
       d="m 36.177755,919.36462 0,98.80858 0,-98.80858 z"
       id="path4356"
       inkscape:connector-curvature="0" />
    <path
       style="fill:#000000;stroke:none"
       inkscape:connector-curvature="0"
       d="m -36.049323,969.37897 c -0.239263,0.009 -0.634355,0.0221 -0.8773,0.0294 -0.242945,0.007 -0.607362,0.0196 -0.809816,0.0258 -0.202453,0.006 -0.555828,0.0172 -0.785275,0.0245 -0.229448,0.007 -0.574234,0.0184 -0.766872,0.0245 -0.192638,0.006 -0.57546,0.0172 -0.85276,0.0245 -0.276073,0.009 -0.528834,0.0184 -0.560736,0.0221 -0.05644,0.009 -0.07485,0.0258 -1.460122,1.37056 -4.750919,4.61473 -4.858894,4.72147 -4.842943,4.73129 0.0098,0.006 0.04049,0.011 0.06994,0.011 0.06503,0 0.06626,0.0147 0.0012,0.081 l -0.05031,0.0515 0.0773,0.007 c 0.04294,0.004 0.188957,0.01 0.323926,0.0135 0.134969,0.004 0.4,0.0123 0.588957,0.0184 0.188957,0.007 0.688343,0.0233 1.110429,0.0368 0.98773,0.0307 1.067484,0.0356 1.067484,0.054 0,0.009 -1.170551,1.12514 -2.602453,2.48098 -2.321472,2.19877 -2.597545,2.46502 -2.56687,2.4687 0.0773,0.007 0.11411,0.0172 0.11411,0.0295 0,0.009 -0.02577,0.038 -0.05767,0.0662 l -0.05889,0.0515 0.190184,0.007 c 0.104294,0.004 0.568098,0.0135 1.030674,0.0209 0.469938,0.007 0.845398,0.0184 0.852761,0.0245 0.0074,0.007 -0.0098,0.0331 -0.04417,0.0699 -0.349693,0.36196 -3.504294,3.69202 -3.512882,3.70551 -0.0061,0.011 0.04785,-0.0123 0.119018,-0.0503 0.07239,-0.0393 0.133742,-0.0699 0.137423,-0.0699 0.01963,0 0,0.0368 -0.03804,0.0748 -0.02454,0.0221 -0.0773,0.0798 -0.119019,0.12639 l -0.07485,0.0847 0.06626,-0.0344 c 0.03681,-0.0184 0.807362,-0.42699 1.711656,-0.90797 0.904294,-0.48099 2.898158,-1.54111 4.429447,-2.35583 1.532514,-0.81349 2.790182,-1.48466 2.797544,-1.49202 0.0061,-0.006 -0.03558,-0.011 -0.114111,-0.011 -0.07116,0 -0.125153,-0.005 -0.125153,-0.011 0,-0.007 0.04663,-0.038 0.105522,-0.0699 0.05767,-0.0307 0.10184,-0.0589 0.09939,-0.0614 -0.0025,-0.004 -0.490796,0 -1.083435,0.006 -1.46503,0.0172 -2.002453,0.0209 -2.009815,0.0135 -0.0037,-0.004 -0.0025,-0.0123 0.0025,-0.0196 0.0049,-0.007 1.490797,-1.14111 3.303066,-2.51902 1.81227,-1.37914 3.30552,-2.51779 3.319017,-2.53005 0.02331,-0.0233 0.02209,-0.0233 -0.0638,-0.0233 -0.04908,0 -0.09202,-0.005 -0.09571,-0.0123 -0.0037,-0.006 0.02699,-0.038 0.06871,-0.0699 l 0.07485,-0.0589 -1.273619,-0.007 c -0.70184,-0.004 -1.483435,-0.009 -1.73865,-0.01 -0.393864,-10e-4 -0.463803,-0.004 -0.460122,-0.0184 0.0025,-0.01 1.202453,-1.08466 2.666257,-2.38896 3.439263,-3.06257 3.234354,-2.87974 3.233128,-2.89079 0,-0.005 -0.03068,-0.007 -0.06626,-0.006 -0.0908,0.006 -0.09693,-0.0123 -0.02699,-0.0822 0.06135,-0.0626 0.06748,-0.0761 0.03558,-0.0736 -0.01227,10e-4 -0.218405,0.01 -0.457668,0.0172 z"
       id="path3361" />
    <g
       id="g3455"
       transform="translate(-50.507627,-5.8083771)">
      <circle
         r="10.027466"
         cy="982.36023"
         cx="30.028103"
         id="path3443"
         style="opacity:1;fill:#4d4d4d;fill-opacity:1;stroke:none" />
      <path
         id="path3361-3"
         d="m 36.001141,976.12051 c -0.196076,0.013 -0.519859,0.0181 -0.718952,0.0233 -0.199095,0.013 -0.497737,0.0173 -0.66365,0.0207 -0.16591,0.013 -0.455504,0.0139 -0.643537,0.0189 -0.188033,0.013 -0.470588,0.0147 -0.628455,0.0198 -0.15787,0.013 -0.471593,0.0147 -0.698843,0.0198 -0.226243,0.013 -0.433384,0.0147 -0.459527,0.0182 -0.04626,0.013 -0.06134,0.0207 -1.19658,1.12314 -3.893407,3.78173 -3.981893,3.86924 -3.96882,3.87735 0.008,0.013 0.03319,0.013 0.05731,0.013 0.05329,0 0.0543,0.013 9.51e-4,0.0664 l -0.04123,0.0432 0.06335,0.013 c 0.03519,0 0.154852,0.013 0.265459,0.013 0.110608,0 0.327803,0.013 0.482655,0.0139 0.15485,0.013 0.564101,0.0181 0.910003,0.0302 0.80945,0.025 0.874809,0.0285 0.874809,0.044 0,0.013 -0.959273,0.92224 -2.132726,2.03321 -1.902461,1.80194 -2.128704,2.02019 -2.103565,2.02312 0.06335,0.013 0.09352,0.0146 0.09352,0.0233 0,0.013 -0.02112,0.0311 -0.04727,0.0543 l -0.04827,0.0415 0.155857,0.013 c 0.08546,0 0.465559,0.013 0.844644,0.0172 0.385117,0.013 0.692808,0.0139 0.698842,0.0189 0.0061,0.013 -0.008,0.0276 -0.0362,0.0569 -0.286576,0.29669 -2.871791,3.02562 -2.878829,3.03666 -0.0049,0.013 0.03921,-0.013 0.09754,-0.0406 0.05932,-0.031 0.109605,-0.0569 0.112624,-0.0569 0.01609,0 0,0.0302 -0.03117,0.0621 -0.02011,0.0181 -0.06335,0.0664 -0.09754,0.10394 l -0.06134,0.0699 0.05429,-0.0276 c 0.03017,-0.0147 0.661638,-0.34993 1.402713,-0.74413 0.741073,-0.39402 2.375058,-1.26285 3.629958,-1.93051 1.255904,-0.66673 2.286572,-1.21669 2.292604,-1.22264 0.0049,-0.013 -0.02916,-0.013 -0.09352,-0.013 -0.0583,0 -0.102552,0 -0.102552,-0.013 0,-0.013 0.03822,-0.0311 0.08647,-0.0586 0.04727,-0.025 0.08346,-0.0493 0.08144,-0.051 -0.0021,0 -0.402208,0 -0.887881,0.013 -1.200602,0.0147 -1.641023,0.0173 -1.647056,0.013 -0.003,0 -0.0021,-0.013 0.0021,-0.0172 0.004,-0.013 1.221718,-0.93511 2.706884,-2.06429 1.485165,-1.1302 2.708893,-2.06332 2.719954,-2.07333 0.01909,-0.0181 0.01809,-0.0181 -0.05229,-0.0181 -0.04023,0 -0.07542,0 -0.07844,-0.013 -0.003,-0.013 0.02212,-0.031 0.0563,-0.0586 l 0.06134,-0.0484 -1.043741,-0.013 c -0.57516,0 -1.215683,-0.013 -1.424832,-0.013 -0.322774,-7.8e-4 -0.38009,0 -0.377072,-0.0139 0.0021,-0.013 0.985416,-0.88893 2.185012,-1.95788 2.818498,-2.50973 2.650572,-2.35993 2.649569,-2.36898 0,0 -0.02514,-0.013 -0.0543,-0.013 -0.07441,0.013 -0.07944,-0.013 -0.02212,-0.0673 0.05027,-0.051 0.0553,-0.0621 0.02915,-0.0612 -0.01002,0 -0.178983,0.013 -0.375063,0.0147 z"
         inkscape:connector-curvature="0"
         style="fill:#ffff00;stroke:none" />
    </g>
    <g
       transform="matrix(2.9205274,0,0,2.9205274,-52.433713,-1849.8942)"
       id="g3455-2-9"
       style="stroke:#000000;stroke-width:0.39037442;stroke-linejoin:round;stroke-miterlimit:4;stroke-dasharray:none">
      <circle
         r="10.027466"
         cy="982.36023"
         cx="30.028103"
         id="path3443-9-3"
         style="opacity:1;fill:#4d4d4d;fill-opacity:1;stroke:#000000;stroke-width:0.39037442;stroke-linejoin:round;stroke-miterlimit:4;stroke-dasharray:none" />
      <path
         id="path3361-3-1-6"
         d="m 36.001141,976.12051 c -0.196076,0.013 -0.519859,0.0181 -0.718952,0.0233 -0.199095,0.013 -0.497737,0.0173 -0.66365,0.0207 -0.16591,0.013 -0.455504,0.0139 -0.643537,0.0189 -0.188033,0.013 -0.470588,0.0147 -0.628455,0.0198 -0.15787,0.013 -0.471593,0.0147 -0.698843,0.0198 -0.226243,0.013 -0.433384,0.0147 -0.459527,0.0182 -0.04626,0.013 -0.06134,0.0207 -1.19658,1.12314 -3.893407,3.78173 -3.981893,3.86924 -3.96882,3.87735 0.008,0.013 0.03319,0.013 0.05731,0.013 0.05329,0 0.0543,0.013 9.51e-4,0.0664 l -0.04123,0.0432 0.06335,0.013 c 0.03519,0 0.154852,0.013 0.265459,0.013 0.110608,0 0.327803,0.013 0.482655,0.0139 0.15485,0.013 0.564101,0.0181 0.910003,0.0302 0.80945,0.025 0.874809,0.0285 0.874809,0.044 0,0.013 -0.959273,0.92224 -2.132726,2.03321 -1.902461,1.80194 -2.128704,2.02019 -2.103565,2.02312 0.06335,0.013 0.09352,0.0146 0.09352,0.0233 0,0.013 -0.02112,0.0311 -0.04727,0.0543 l -0.04827,0.0415 0.155857,0.013 c 0.08546,0 0.465559,0.013 0.844644,0.0172 0.385117,0.013 0.692808,0.0139 0.698842,0.0189 0.0061,0.013 -0.008,0.0276 -0.0362,0.0569 -0.286576,0.29669 -2.871791,3.02562 -2.878829,3.03666 -0.0049,0.013 0.03921,-0.013 0.09754,-0.0406 0.05932,-0.031 0.109605,-0.0569 0.112624,-0.0569 0.01609,0 0,0.0302 -0.03117,0.0621 -0.02011,0.0181 -0.06335,0.0664 -0.09754,0.10394 l -0.06134,0.0699 0.05429,-0.0276 c 0.03017,-0.0147 0.661638,-0.34993 1.402713,-0.74413 0.741073,-0.39402 2.375058,-1.26285 3.629958,-1.93051 1.255904,-0.66673 2.286572,-1.21669 2.292604,-1.22264 0.0049,-0.013 -0.02916,-0.013 -0.09352,-0.013 -0.0583,0 -0.102552,0 -0.102552,-0.013 0,-0.013 0.03822,-0.0311 0.08647,-0.0586 0.04727,-0.025 0.08346,-0.0493 0.08144,-0.051 -0.0021,0 -0.402208,0 -0.887881,0.013 -1.200602,0.0147 -1.641023,0.0173 -1.647056,0.013 -0.003,0 -0.0021,-0.013 0.0021,-0.0172 0.004,-0.013 1.221718,-0.93511 2.706884,-2.06429 1.485165,-1.1302 2.708893,-2.06332 2.719954,-2.07333 0.01909,-0.0181 0.01809,-0.0181 -0.05229,-0.0181 -0.04023,0 -0.07542,0 -0.07844,-0.013 -0.003,-0.013 0.02212,-0.031 0.0563,-0.0586 l 0.06134,-0.0484 -1.043741,-0.013 c -0.57516,0 -1.215683,-0.013 -1.424832,-0.013 -0.322774,-7.8e-4 -0.38009,0 -0.377072,-0.0139 0.0021,-0.013 0.985416,-0.88893 2.185012,-1.95788 2.818498,-2.50973 2.650572,-2.35993 2.649569,-2.36898 0,0 -0.02514,-0.013 -0.0543,-0.013 -0.07441,0.013 -0.07944,-0.013 -0.02212,-0.0673 0.05027,-0.051 0.0553,-0.0621 0.02915,-0.0612 -0.01002,0 -0.178983,0.013 -0.375063,0.0147 z"
         inkscape:connector-curvature="0"
         style="fill:#ffff00;stroke:#000000;stroke-width:0.39037442;stroke-linejoin:round;stroke-miterlimit:4;stroke-dasharray:none" />
    </g>
    <g
       transform="matrix(2.9205274,0,0,2.9205274,-51.755084,-1946.4633)"
       id="g3455-2-9-0"
       style="stroke:#000000;stroke-width:0.39037442;stroke-linejoin:round;stroke-miterlimit:4;stroke-dasharray:none">
      <circle
         r="10.027466"
         cy="982.36023"
         cx="30.028103"
         id="path3443-9-3-6"
         style="opacity:1;fill:#4d4d4d;fill-opacity:1;stroke:#000000;stroke-width:0.39037442;stroke-linejoin:round;stroke-miterlimit:4;stroke-dasharray:none" />
      <path
         id="path3361-3-1-6-2"
         d="m 36.001141,976.12051 c -0.196076,0.013 -0.519859,0.0181 -0.718952,0.0233 -0.199095,0.013 -0.497737,0.0173 -0.66365,0.0207 -0.16591,0.013 -0.455504,0.0139 -0.643537,0.0189 -0.188033,0.013 -0.470588,0.0147 -0.628455,0.0198 -0.15787,0.013 -0.471593,0.0147 -0.698843,0.0198 -0.226243,0.013 -0.433384,0.0147 -0.459527,0.0182 -0.04626,0.013 -0.06134,0.0207 -1.19658,1.12314 -3.893407,3.78173 -3.981893,3.86924 -3.96882,3.87735 0.008,0.013 0.03319,0.013 0.05731,0.013 0.05329,0 0.0543,0.013 9.51e-4,0.0664 l -0.04123,0.0432 0.06335,0.013 c 0.03519,0 0.154852,0.013 0.265459,0.013 0.110608,0 0.327803,0.013 0.482655,0.0139 0.15485,0.013 0.564101,0.0181 0.910003,0.0302 0.80945,0.025 0.874809,0.0285 0.874809,0.044 0,0.013 -0.959273,0.92224 -2.132726,2.03321 -1.902461,1.80194 -2.128704,2.02019 -2.103565,2.02312 0.06335,0.013 0.09352,0.0146 0.09352,0.0233 0,0.013 -0.02112,0.0311 -0.04727,0.0543 l -0.04827,0.0415 0.155857,0.013 c 0.08546,0 0.465559,0.013 0.844644,0.0172 0.385117,0.013 0.692808,0.0139 0.698842,0.0189 0.0061,0.013 -0.008,0.0276 -0.0362,0.0569 -0.286576,0.29669 -2.871791,3.02562 -2.878829,3.03666 -0.0049,0.013 0.03921,-0.013 0.09754,-0.0406 0.05932,-0.031 0.109605,-0.0569 0.112624,-0.0569 0.01609,0 0,0.0302 -0.03117,0.0621 -0.02011,0.0181 -0.06335,0.0664 -0.09754,0.10394 l -0.06134,0.0699 0.05429,-0.0276 c 0.03017,-0.0147 0.661638,-0.34993 1.402713,-0.74413 0.741073,-0.39402 2.375058,-1.26285 3.629958,-1.93051 1.255904,-0.66673 2.286572,-1.21669 2.292604,-1.22264 0.0049,-0.013 -0.02916,-0.013 -0.09352,-0.013 -0.0583,0 -0.102552,0 -0.102552,-0.013 0,-0.013 0.03822,-0.0311 0.08647,-0.0586 0.04727,-0.025 0.08346,-0.0493 0.08144,-0.051 -0.0021,0 -0.402208,0 -0.887881,0.013 -1.200602,0.0147 -1.641023,0.0173 -1.647056,0.013 -0.003,0 -0.0021,-0.013 0.0021,-0.0172 0.004,-0.013 1.221718,-0.93511 2.706884,-2.06429 1.485165,-1.1302 2.708893,-2.06332 2.719954,-2.07333 0.01909,-0.0181 0.01809,-0.0181 -0.05229,-0.0181 -0.04023,0 -0.07542,0 -0.07844,-0.013 -0.003,-0.013 0.02212,-0.031 0.0563,-0.0586 l 0.06134,-0.0484 -1.043741,-0.013 c -0.57516,0 -1.215683,-0.013 -1.424832,-0.013 -0.322774,-7.8e-4 -0.38009,0 -0.377072,-0.0139 0.0021,-0.013 0.985416,-0.88893 2.185012,-1.95788 2.818498,-2.50973 2.650572,-2.35993 2.649569,-2.36898 0,0 -0.02514,-0.013 -0.0543,-0.013 -0.07441,0.013 -0.07944,-0.013 -0.02212,-0.0673 0.05027,-0.051 0.0553,-0.0621 0.02915,-0.0612 -0.01002,0 -0.178983,0.013 -0.375063,0.0147 z"
         inkscape:connector-curvature="0"
         style="fill:#ffff00;stroke:#000000;stroke-width:0.39037442;stroke-linejoin:round;stroke-miterlimit:4;stroke-dasharray:none" />
    </g>
    <g
       transform="matrix(2.9205274,0,0,2.9205274,39.92789,-1908.5278)"
       id="g3455-2-9-6"
       style="stroke:#000000;stroke-width:0.39037442;stroke-linejoin:round;stroke-miterlimit:4;stroke-dasharray:none">
      <circle
         r="10.027466"
         cy="982.36023"
         cx="30.028103"
         id="path3443-9-3-1"
         style="opacity:1;fill:#4d4d4d;fill-opacity:1;stroke:#000000;stroke-width:0.39037442;stroke-linejoin:round;stroke-miterlimit:4;stroke-dasharray:none" />
      <path
         id="path3361-3-1-6-8"
         d="m 36.001141,976.12051 c -0.196076,0.013 -0.519859,0.0181 -0.718952,0.0233 -0.199095,0.013 -0.497737,0.0173 -0.66365,0.0207 -0.16591,0.013 -0.455504,0.0139 -0.643537,0.0189 -0.188033,0.013 -0.470588,0.0147 -0.628455,0.0198 -0.15787,0.013 -0.471593,0.0147 -0.698843,0.0198 -0.226243,0.013 -0.433384,0.0147 -0.459527,0.0182 -0.04626,0.013 -0.06134,0.0207 -1.19658,1.12314 -3.893407,3.78173 -3.981893,3.86924 -3.96882,3.87735 0.008,0.013 0.03319,0.013 0.05731,0.013 0.05329,0 0.0543,0.013 9.51e-4,0.0664 l -0.04123,0.0432 0.06335,0.013 c 0.03519,0 0.154852,0.013 0.265459,0.013 0.110608,0 0.327803,0.013 0.482655,0.0139 0.15485,0.013 0.564101,0.0181 0.910003,0.0302 0.80945,0.025 0.874809,0.0285 0.874809,0.044 0,0.013 -0.959273,0.92224 -2.132726,2.03321 -1.902461,1.80194 -2.128704,2.02019 -2.103565,2.02312 0.06335,0.013 0.09352,0.0146 0.09352,0.0233 0,0.013 -0.02112,0.0311 -0.04727,0.0543 l -0.04827,0.0415 0.155857,0.013 c 0.08546,0 0.465559,0.013 0.844644,0.0172 0.385117,0.013 0.692808,0.0139 0.698842,0.0189 0.0061,0.013 -0.008,0.0276 -0.0362,0.0569 -0.286576,0.29669 -2.871791,3.02562 -2.878829,3.03666 -0.0049,0.013 0.03921,-0.013 0.09754,-0.0406 0.05932,-0.031 0.109605,-0.0569 0.112624,-0.0569 0.01609,0 0,0.0302 -0.03117,0.0621 -0.02011,0.0181 -0.06335,0.0664 -0.09754,0.10394 l -0.06134,0.0699 0.05429,-0.0276 c 0.03017,-0.0147 0.661638,-0.34993 1.402713,-0.74413 0.741073,-0.39402 2.375058,-1.26285 3.629958,-1.93051 1.255904,-0.66673 2.286572,-1.21669 2.292604,-1.22264 0.0049,-0.013 -0.02916,-0.013 -0.09352,-0.013 -0.0583,0 -0.102552,0 -0.102552,-0.013 0,-0.013 0.03822,-0.0311 0.08647,-0.0586 0.04727,-0.025 0.08346,-0.0493 0.08144,-0.051 -0.0021,0 -0.402208,0 -0.887881,0.013 -1.200602,0.0147 -1.641023,0.0173 -1.647056,0.013 -0.003,0 -0.0021,-0.013 0.0021,-0.0172 0.004,-0.013 1.221718,-0.93511 2.706884,-2.06429 1.485165,-1.1302 2.708893,-2.06332 2.719954,-2.07333 0.01909,-0.0181 0.01809,-0.0181 -0.05229,-0.0181 -0.04023,0 -0.07542,0 -0.07844,-0.013 -0.003,-0.013 0.02212,-0.031 0.0563,-0.0586 l 0.06134,-0.0484 -1.043741,-0.013 c -0.57516,0 -1.215683,-0.013 -1.424832,-0.013 -0.322774,-7.8e-4 -0.38009,0 -0.377072,-0.0139 0.0021,-0.013 0.985416,-0.88893 2.185012,-1.95788 2.818498,-2.50973 2.650572,-2.35993 2.649569,-2.36898 0,0 -0.02514,-0.013 -0.0543,-0.013 -0.07441,0.013 -0.07944,-0.013 -0.02212,-0.0673 0.05027,-0.051 0.0553,-0.0621 0.02915,-0.0612 -0.01002,0 -0.178983,0.013 -0.375063,0.0147 z"
         inkscape:connector-curvature="0"
         style="fill:#ffff00;stroke:#000000;stroke-width:0.39037442;stroke-linejoin:round;stroke-miterlimit:4;stroke-dasharray:none" />
    </g>
  </g>
</svg>
